<?xml version="1.0" encoding="utf-8"?>
<!-- Generator: Adobe Illustrator 28.3.0, SVG Export Plug-In . SVG Version: 6.00 Build 0)  -->
<svg version="1.1" id="Ebene_1" xmlns="http://www.w3.org/2000/svg" xmlns:xlink="http://www.w3.org/1999/xlink" x="0px" y="0px"
	 viewBox="0 0 1920 1080" style="enable-background:new 0 0 1920 1080;" xml:space="preserve">
<style type="text/css">
	.st0{fill:#000;}
	.st1{fill:#FFF;}
	.fill-current:hover {
  fill: bg-blue;
}
</style>
<g>
	<path class="st0" d="M1344,1080c-256.04,0-512.04,0-768,0c0-360.04,0-720.04,0-1080c256.04,0,512.04,0,768,0
		C1344,360.04,1344,720.04,1344,1080z M695.55,703.79c-0.29-0.36-0.58-0.71-0.87-1.07c0.7-1.31,1.34-2.67,2.12-3.93
		c35.48-56.81,83.45-99.6,144.84-126.41c63.57-27.77,129.45-35.48,197.04-17.07c61.57,16.77,113.36,50.31,157.43,95.95
		c41.31,42.8,71.27,92.32,86.38,150.24c13.38,51.3,10.34,102.72,0.03,154.01c-7.77,38.66-22.31,74.82-42,108.95
		c-0.46,0.36-0.93,0.73-1.39,1.09c0.09,0.2,0.19,0.4,0.28,0.59c0.59-0.31,1.18-0.63,1.77-0.94c0.63-0.52,1.32-0.97,1.87-1.56
		c35.66-38.76,62.25-82.94,78.94-132.93c13.74-41.15,20.32-83.41,18.26-126.83c-1.68-35.5-9.98-69.8-19.89-103.73
		c-21.32-73.01-50.78-142.88-82.69-211.76c-49.63-107.11-105.57-210.9-165.72-312.43c-31.22-52.7-63.28-104.9-99.14-154.64
		c-4.15-5.76-8.59-11.31-13.31-17.52c-7.08,9.61-13.9,18.44-20.27,27.59c-43.32,62.2-82.13,127.21-119.66,193
		c-56.18,98.45-108.52,198.86-154.22,302.64c-26.9,61.09-51.48,123.08-68.92,187.65c-8.83,32.7-15.74,65.77-16.16,99.83
		c-0.43,35.39,4.94,69.93,14.7,103.97c29.68,103.49,125.28,168.93,232.11,156.46c74.22-8.66,129.88-47.26,165.8-112.63
		c30.41-55.34,32.96-114.07,15.29-173.86c-14.67-49.61-42.23-90.69-86.95-117.84c-50.26-30.51-103.65-37.45-159.06-14.38
		C736.44,666.95,715.03,684.13,695.55,703.79z"/>
	<path class="st1" d="M1240.52,1064.46c19.69-34.12,34.23-70.29,42-108.95c10.31-51.29,13.35-102.71-0.03-154.01
		c-15.11-57.91-45.06-107.44-86.38-150.24c-44.06-45.65-95.85-79.19-157.43-95.95c-67.6-18.41-133.48-10.7-197.04,17.07
		c-61.39,26.82-109.37,69.61-144.84,126.41c-0.79,1.26-1.42,2.62-2.12,3.93c-0.4,0.57-0.8,1.13-1.2,1.7
		c-0.47,0.36-0.94,0.73-1.41,1.09c0.1,0.2,0.2,0.4,0.3,0.6c0.57-0.33,1.14-0.66,1.71-0.99c0.49-0.44,0.99-0.88,1.48-1.32
		c19.49-19.66,40.89-36.85,66.62-47.56c55.41-23.07,108.8-16.13,159.06,14.38c44.72,27.15,72.28,68.23,86.95,117.84
		c17.68,59.79,15.12,118.51-15.29,173.86c-35.92,65.37-91.58,103.97-165.8,112.63c-106.83,12.47-202.44-52.97-232.11-156.46
		c-9.76-34.04-15.13-68.58-14.7-103.97c0.41-34.06,7.33-67.13,16.16-99.83c17.44-64.58,42.02-126.56,68.92-187.65
		c45.7-103.78,98.05-204.2,154.22-302.64c37.54-65.78,76.35-130.79,119.66-193c6.37-9.14,13.18-17.97,20.27-27.59
		c4.73,6.21,9.16,11.76,13.31,17.52c35.86,49.74,67.92,101.93,99.14,154.64c60.15,101.53,116.09,205.32,165.72,312.43
		c31.91,68.87,61.36,138.74,82.69,211.76c9.91,33.93,18.21,68.23,19.89,103.73c2.06,43.42-4.52,85.68-18.26,126.83
		c-16.7,49.99-43.29,94.17-78.94,132.93c-0.54,0.59-1.24,1.04-1.87,1.56C1240.96,1064.95,1240.74,1064.7,1240.52,1064.46z"/>
	<path class="st1" d="M1241.18,1065.2c-0.59,0.31-1.18,0.63-1.77,0.94c-0.09-0.2-0.19-0.4-0.28-0.59c0.46-0.36,0.93-0.73,1.39-1.09
		C1240.74,1064.7,1240.96,1064.95,1241.18,1065.2z"/>
	<path class="st0" d="M695.55,703.79c-0.49,0.44-0.99,0.88-1.48,1.32c-0.2-0.23-0.4-0.46-0.6-0.69c0.4-0.57,0.8-1.13,1.2-1.7
		C694.96,703.08,695.25,703.44,695.55,703.79z"/>
	<path class="st0" d="M694.07,705.12c-0.57,0.33-1.14,0.66-1.71,0.99c-0.1-0.2-0.2-0.4-0.3-0.6c0.47-0.36,0.94-0.73,1.41-1.09
		C693.67,704.65,693.87,704.88,694.07,705.12z"/>
</g>
</svg>
